# xmcd
# 
# Track frame offsets:
#     150
#     18384
#     42578
#     55544
#     67748
#     76954
#     91731
#     106339
#     125253
#     137729
#     160651
#     174463
# 
# Disc length: 2473
# 
# Revision: 0
# Processed by: cddbd v1.5.2PL0 Copyright (c) Steve Scherf et al.
# Submitted via: BonkEnc v1.0
# 
DISCID=8a09a70c
DTITLE=Donovan - ---------
DYEAR=1965
DGENRE=Country
TTITLE0=sunshine superman
TTITLE1=season of the witch
TTITLE2=catch the wind
TTITLE3=colours
TTITLE4=jennifer juniper
TTITLE5=lalena
TTITLE6=atlantis
TTITLE7=stealing
TTITLE8=universal soldier
TTITLE9=young girls blues
TTITLE10=sailing homeward
TTITLE11=wear our love like heaven
EXTD=
EXTT0=
EXTT1=
EXTT2=
EXTT3=
EXTT4=
EXTT5=
EXTT6=
EXTT7=
EXTT8=
EXTT9=
EXTT10=
EXTT11=
PLAYORDER=
